# xmcd
#
# Track frame offsets: 
#        150
#        21660
#        45347
#        68912
#        87385
#        107725
#        131140
#        155385
#        177592
#        202772
#        226880
#        246330
#        268190
#        289477
#        314012
#
# Disc length: 4516 seconds
#
# Revision: 4
# Processed by: cddbd v1.5.2PL0 Copyright (c) Steve Scherf et al.
# Submitted via: ExactAudioCopyFreeDBPlugin 1.0
#
DISCID=e211a20f
DTITLE=Freddie Jackson - Anthology
DYEAR=1998
DGENRE=SMB
TTITLE0=You and I Got a Thang
TTITLE1=Nice n' Slow
TTITLE2=Hey Lover
TTITLE3=Crazy (For Me)
TTITLE4=All Over You
TTITLE5=Do Me Again
TTITLE6=Love Me Down
TTITLE7=Main Course
TTITLE8=It Takes Two
TTITLE9=Second Time for Love
TTITLE10=Can I Touch You
TTITLE11=Live My Life Without You
TTITLE12=All I'll Ever Ask
TTITLE13=Me and Mrs. Jones
TTITLE14=I Could Use a Little Love (Right Now)
EXTD=
EXTT0=
EXTT1=
EXTT2=
EXTT3=
EXTT4=
EXTT5=
EXTT6=
EXTT7=
EXTT8=
EXTT9=
EXTT10=
EXTT11=
EXTT12=
EXTT13=
EXTT14=
PLAYORDER=
